<svg id="Layer_1" data-name="Layer 1" xmlns="http://www.w3.org/2000/svg" viewBox="0 0 179.68 145"><defs><style>.cls-1{fill:#fff;}</style></defs><path class="cls-1" d="M121.1,390.93a25.34,25.34,0,0,0-.94,2.68,89.64,89.64,0,0,0-2,10.3,43.11,43.11,0,0,0,2.91,19.83,52.44,52.44,0,0,0,14.35,20.43,14,14,0,0,0,3.07,1.53,1.77,1.77,0,0,1,.54.55c.34.42.58,1,1,1.27a46.67,46.67,0,0,0,18.21,6.94,46,46,0,0,0,16.43-.46,48.1,48.1,0,0,0,34.42-28,43.48,43.48,0,0,0,3.23-11.94,48,48,0,0,0,.08-11.36,44.42,44.42,0,0,0-2.68-11.59c-.93-2.33-2.33-4.46-3.29-6.78a29.68,29.68,0,0,0-5.86-8.45,46.9,46.9,0,0,0-31-15.44,45.32,45.32,0,0,0-25.38,4.77,47,47,0,0,0-20.06,19.1c-.55,1-.29,1.56.86,2a47.2,47.2,0,0,1,8.1-10.93c2.2-2.16,4.37-4.47,7.3-5.6a29.26,29.26,0,0,1,5.92-1.25c6.81-1.05,13.54-.86,20.06,1.58a12.64,12.64,0,0,1,6.75,5.19c.74,1.23,1.18,2.6.32,3.95s-1.93.38-2.92.26c-2.2-.27-4.23.17-5.62,1.92a35.1,35.1,0,0,0-3.57,5.59,2,2,0,0,1-2,1.33c-3.59.11-7.19.26-10.78.46a8.88,8.88,0,0,0-8.36,6.62c-1,3.09-.3,5.95.79,8.84a4.45,4.45,0,0,0,4.38,3.17c.92,0,1.84,0,2.76.08a1.29,1.29,0,0,1,1.13,2c-.9,1.5-.31,2.57.76,3.56,2.12,2,4.29,3.88,6.39,5.87a3.31,3.31,0,0,1,1.1,1.74,27.16,27.16,0,0,1,.37,5.47,14.47,14.47,0,0,1-1,4.37c-1,2.65-3.82,3.06-6.32,1.23-1.54-1.13-3.28-2-5.32-1.21-1.47.6-2.94,1.18-4.38,1.85-2.24,1-4.56,1.7-6.92.76-2.07-.82-4-1.49-6.15-.32-.06,0-.16,0-.35,0-.72-1.19-1.52-2.42-2.21-3.71a45.53,45.53,0,0,1-2.34-37.9c.41-1.1.2-1.66-1-2.23-1,.93,0,1.73.4,2.79ZM288.43,315l-.25-.34a7.72,7.72,0,0,1-1.06.65c-1.8.75-3.33,2.15-5.39,2.25-1,0-1.67.43-1.81,1.06-.83.33-1.4.52-1.95.78-1.13.53-2.25,1.09-3.36,1.64-.2.1-.36.29-.56.4a18.58,18.58,0,0,1-2.1,1.15c-1.82.74-3.73,1.27-5.5,2.13-2.15,1.05-4.15,2.4-6.28,3.5-2.73,1.41-5.55,2.67-8.29,4.06-2.54,1.28-5,2.76-7.55,3.92a68.44,68.44,0,0,0-10.39,5.95,4.34,4.34,0,0,1-1.44.79,6.42,6.42,0,0,0-3.3,2.19,13.86,13.86,0,0,0-2.65,15,13.37,13.37,0,0,0,10.37,8.16,14.28,14.28,0,0,0,12.74-4.64,1.6,1.6,0,0,1,.49-.51c1.7-.84,2.51-2.4,3.34-4a5.46,5.46,0,0,1,1.1-1.21c1-.94,2-1.83,3-2.79s1.8-2.05,2.76-3c.49-.5,1.23-.76,1.67-1.28,1-1.2,1.83-2.56,2.85-3.74s2.38-2.43,3.51-3.7,2.24-2.73,3.42-4.05q3.09-3.48,6.27-6.89c2.51-2.68,5.07-5.31,7.6-8a9,9,0,0,0,.8-1,19.13,19.13,0,0,1,1.18-1.75c2.92-3.32,5.87-6.61,8.8-9.92.43-.49.81-1,1.21-1.53l-.17-.24a11.3,11.3,0,0,1-4.16,2.07,11.09,11.09,0,0,0-2.82,1.23c-.52.25-1,.57-1.51.86l.14.26h1l.15.36-3.56,1.71-.14-.27ZM123.52,389.49c.41-1.17.17-1.65-1-2.05C122.22,388.47,122.37,388.82,123.52,389.49Zm.71-1.64.43-.24c-.32-.55-.62-1.11-1-1.64,0-.05-.52,0-.57.18-.34.81.33,1.18.79,1.63C124,387.85,124.12,387.83,124.23,387.85Z" transform="translate(-117.96 -309.99)"/><path d="M121.1,390.93l1.2.85c-.43-1.06-1.35-1.86-.4-2.79,1.18.57,1.39,1.13,1,2.23a45.53,45.53,0,0,0,2.34,37.9c.69,1.29,1.49,2.52,2.21,3.71.19,0,.29.06.35,0,2.12-1.17,4.08-.5,6.15.32,2.36.94,4.68.27,6.92-.76,1.44-.67,2.91-1.25,4.38-1.85,2-.82,3.78.08,5.32,1.21,2.5,1.83,5.31,1.42,6.32-1.23a14.47,14.47,0,0,0,1-4.37,27.16,27.16,0,0,0-.37-5.47,3.31,3.31,0,0,0-1.1-1.74c-2.1-2-4.27-3.91-6.39-5.87-1.07-1-1.66-2.06-.76-3.56a1.29,1.29,0,0,0-1.13-2c-.92-.09-1.84,0-2.76-.08a4.45,4.45,0,0,1-4.38-3.17c-1.09-2.89-1.78-5.75-.79-8.84a8.88,8.88,0,0,1,8.36-6.62c3.59-.2,7.19-.35,10.78-.46a2,2,0,0,0,2-1.33,35.1,35.1,0,0,1,3.57-5.59c1.39-1.75,3.42-2.19,5.62-1.92,1,.12,2.11,1,2.92-.26s.42-2.72-.32-3.95a12.64,12.64,0,0,0-6.75-5.19c-6.52-2.44-13.25-2.63-20.06-1.58a29.26,29.26,0,0,0-5.92,1.25c-2.93,1.13-5.1,3.44-7.3,5.6a47.2,47.2,0,0,0-8.1,10.93c-1.15-.46-1.41-1.06-.86-2a47,47,0,0,1,20.06-19.1,45.32,45.32,0,0,1,25.38-4.77,46.9,46.9,0,0,1,31,15.44,29.68,29.68,0,0,1,5.86,8.45c1,2.32,2.36,4.45,3.29,6.78a44.42,44.42,0,0,1,2.68,11.59,48,48,0,0,1-.08,11.36A43.48,43.48,0,0,1,209.08,426a48.1,48.1,0,0,1-34.42,28,46,46,0,0,1-16.43.46A46.67,46.67,0,0,1,140,447.52c-.43-.27-.67-.85-1-1.27a1.77,1.77,0,0,0-.54-.55,14,14,0,0,1-3.07-1.53,52.44,52.44,0,0,1-14.35-20.43,43.11,43.11,0,0,1-2.91-19.83,89.64,89.64,0,0,1,2-10.3A25.34,25.34,0,0,1,121.1,390.93Zm75.41,14.63c0-.81-.13-1.64-.15-2.47-.07-2,.31-3.87,2.44-4.72.71-.28,1.57-.18,2.32-.39a13.91,13.91,0,0,0,6.8-4.1,1.55,1.55,0,0,0,.4-1.26c-.6-1.63-1.26-3.25-2-4.82a43.68,43.68,0,0,0-13.52-16.61,42.49,42.49,0,0,0-8.86-5.16,10.8,10.8,0,0,0-.11,1.5,7.61,7.61,0,0,0,2.3,4.6c2.61,2.94,3.67,6.12,1.74,9.82-.65,1.24-.16,1.95.84,2.66a4.45,4.45,0,0,1,2.12,3c.53,3.84,1.13,7.66,1.75,11.47a35,35,0,0,0,1.09,5.12A2,2,0,0,0,196.51,405.56Zm-20.37,46.3a44.73,44.73,0,0,0,25.09-16.35,3.6,3.6,0,0,0-1,.52c-.91.63-1.78,1.32-2.74,1.86-2.16,1.23-4.42,2.29-6.51,3.61a6.66,6.66,0,0,1-3.86,1.34,2,2,0,0,0-2.18,1.63,3.24,3.24,0,0,1-2.46,2.42A10.53,10.53,0,0,0,176.14,451.86Zm-17.87-41.94c-1.77-.12-2.25.37-2.09,2a2.8,2.8,0,0,0,2.68,2.67c1.16.12,1.73.58,1.75,1.77a9.84,9.84,0,0,0,.26,2.37,8.28,8.28,0,0,0,1.12,2.81,2.49,2.49,0,0,0,2,.53c.83-.09.56-.84.5-1.44a1.4,1.4,0,0,1,.36-1c.94-.88.55-1.52-.18-2.28a16.28,16.28,0,0,1-1.83-2.39c-.78-1.19-1.46-2.44-2.19-3.66A2.36,2.36,0,0,0,158.27,409.92Z" transform="translate(-117.96 -309.99)"/><path d="M288.43,315l-1.88,1.23.14.27,3.56-1.71-.15-.36h-1l-.14-.26c.5-.29,1-.61,1.51-.86a11.09,11.09,0,0,1,2.82-1.23,11.3,11.3,0,0,0,4.16-2.07l.17.24c-.4.51-.78,1-1.21,1.53-2.93,3.31-5.88,6.6-8.8,9.92a19.13,19.13,0,0,0-1.18,1.75,9,9,0,0,1-.8,1c-2.53,2.66-5.09,5.29-7.6,8q-3.18,3.4-6.27,6.89c-1.18,1.32-2.24,2.73-3.42,4.05s-2.41,2.41-3.51,3.7-1.85,2.54-2.85,3.74c-.44.52-1.18.78-1.67,1.28-1,1-1.81,2-2.76,3s-2,1.85-3,2.79a5.46,5.46,0,0,0-1.1,1.21c-.83,1.57-1.64,3.13-3.34,4a1.6,1.6,0,0,0-.49.51,14.28,14.28,0,0,1-12.74,4.64,13.37,13.37,0,0,1-10.37-8.16,13.86,13.86,0,0,1,2.65-15,6.42,6.42,0,0,1,3.3-2.19,4.34,4.34,0,0,0,1.44-.79,68.44,68.44,0,0,1,10.39-5.95c2.58-1.16,5-2.64,7.55-3.92,2.74-1.39,5.56-2.65,8.29-4.06,2.13-1.1,4.13-2.45,6.28-3.5,1.77-.86,3.68-1.39,5.5-2.13a18.58,18.58,0,0,0,2.1-1.15c.2-.11.36-.3.56-.4,1.11-.55,2.23-1.11,3.36-1.64.55-.26,1.12-.45,1.95-.78.14-.63.84-1,1.81-1.06,2.06-.1,3.59-1.5,5.39-2.25a7.72,7.72,0,0,0,1.06-.65Zm-60.57,39c.56,0,1.33-.06,1.39.1a7.59,7.59,0,0,1,.56,2.55,1.31,1.31,0,0,1-1.63,1.41,9.38,9.38,0,0,0,2.59.86c1.08.2,1.89.54,2.21,1.77a11.41,11.41,0,0,0,1.31,2.4c.47-1.49,1.27-2.11,2.28-1.92s1.74.62,1.57,1.94c1.24-2.22,2.87-1.9,4.76-1.1a16.18,16.18,0,0,0,3.82.85c.36.06.79-.26,1.28-.45a8.11,8.11,0,0,1-1.59-.23c-.12,0-.2-.72-.09-.79a20.41,20.41,0,0,1,2.05-1.12,5.57,5.57,0,0,1-.86-1,2.64,2.64,0,0,1-.46-1.45,1.56,1.56,0,0,1,.86-1,8.8,8.8,0,0,1,1.89-.39c0-.38-.09-.67,0-.85.81-1.36.2-2.85.38-4.27.16-1.26-.55-1.55-1.7-.9a1.78,1.78,0,0,1-.78.21,16.71,16.71,0,0,1-8.08-1.81c-1.74-.91-3.34-2.09-5-3.09a1.93,1.93,0,0,0-1.39-.32,2.3,2.3,0,0,0-1.23,2.86c.58,1.87.42,2.19-1.29,3.11C229.52,352.06,228.32,352.7,227.86,354Zm23-10.69a7.18,7.18,0,0,0,2.27-.27,8.05,8.05,0,0,0,1.73-1.59,8,8,0,0,1,4.46-2.35c.23,0,.41-.33.62-.49,1.32-1.05,2.59-2.15,4-3.11,1.55-1.09,3.2-2,4.79-3.08.19-.12.29-.36.43-.54.33-.43.57-1,1-1.25,1-.57,2.23-.69,3-1.75.11-.17.6,0,.89-.13.54-.19,1.47-.38,1.52-.69.17-1.06,1-1.2,1.67-1.67a7.4,7.4,0,0,0,.57-.55,21.25,21.25,0,0,1,1.61-1.54c.68-.55,1.47-1,2.16-1.52,1.15-.89,2.24-1.85,3.37-2.76a1.16,1.16,0,0,1,.65-.23,2.79,2.79,0,0,0,2.76-2.58c-.35,0-.71-.11-.93,0a18,18,0,0,0-2.38,1.6c-1.18.95-2.22,2.09-3.45,3-1.39,1-2.92,1.82-4.39,2.72-.39.24-.78.47-1.14.74-.6.46-1.18.93-1.75,1.42s-1,.89-1.48,1.35c-.14.13-.21.34-.37.44a25.05,25.05,0,0,1-3,1.77c-1.11.47-2.24.81-2.76,2.05-.06.16-.3.25-.48.33-1.39.66-3,1.08-3.68,2.67-.05.11-.26.15-.39.23-.75.45-1.51.88-2.23,1.38A14.1,14.1,0,0,1,258,338.3a16.48,16.48,0,0,0-4.36,2.94A26.91,26.91,0,0,1,250.84,343.33Zm27.84-22.11-.2-.36c-1.89-.29-3,1.38-4.44,2-1.05.45-1.59,2-3.12,1.53-.12,0-.32.21-.48.32a22.45,22.45,0,0,1-2.35,1.58c-.76.4-1.71.46-2.43.9s-1.37,1.44-2.2,1.81c-2,.9-3.61,2.52-5.8,3.26a34.51,34.51,0,0,0-6.36,3.34c-1.39.84-2.63,1.92-3.94,2.89l.2.3c1.47-.69,2.94-1.36,4.39-2.06,1.63-.8,3.12-1.8,4.83-2.51,3.71-1.55,6.38-4.9,10.16-6.46a29.23,29.23,0,0,1,3.94-1.75,3.48,3.48,0,0,0,1.8-.88,12.06,12.06,0,0,1,2-1.53C276,322.78,277.35,322,278.68,321.22Zm-10.05,15.33-.3-.29a20.08,20.08,0,0,0-2.63,1.87c-1.77,1.76-3.43,3.62-5.13,5.44-.11.11-.26.17-.38.27l-1.82,1.5.26.38a4.94,4.94,0,0,0,1.07-.63c1.45-1.37,2.85-2.8,4.32-4.16.66-.62,1.48-1.05,2.13-1.68C267,338.41,267.81,337.46,268.63,336.55Z" transform="translate(-117.96 -309.99)"/><path d="M123.52,389.49c-1.15-.67-1.3-1-1-2.05C123.69,387.84,123.93,388.32,123.52,389.49Z" transform="translate(-117.96 -309.99)"/><path d="M124.23,387.85c-.11,0-.26,0-.32-.07-.46-.45-1.13-.82-.79-1.63,0-.13.53-.23.57-.18.35.53.65,1.09,1,1.64Z" transform="translate(-117.96 -309.99)"/><path class="cls-1" d="M196.51,405.56a2,2,0,0,1-2.85-1.35,35,35,0,0,1-1.09-5.12c-.62-3.81-1.22-7.63-1.75-11.47a4.45,4.45,0,0,0-2.12-3c-1-.71-1.49-1.42-.84-2.66,1.93-3.7.87-6.88-1.74-9.82a7.61,7.61,0,0,1-2.3-4.6,10.8,10.8,0,0,1,.11-1.5,42.49,42.49,0,0,1,8.86,5.16,43.68,43.68,0,0,1,13.52,16.61c.75,1.57,1.41,3.19,2,4.82a1.55,1.55,0,0,1-.4,1.26,13.91,13.91,0,0,1-6.8,4.1c-.75.21-1.61.11-2.32.39-2.13.85-2.51,2.7-2.44,4.72C196.38,403.92,196.46,404.75,196.51,405.56Z" transform="translate(-117.96 -309.99)"/><path class="cls-1" d="M176.14,451.86a10.53,10.53,0,0,1,6.35-5,3.24,3.24,0,0,0,2.46-2.42,2,2,0,0,1,2.18-1.63A6.66,6.66,0,0,0,191,441.5c2.09-1.32,4.35-2.38,6.51-3.61,1-.54,1.83-1.23,2.74-1.86a3.6,3.6,0,0,1,1-.52A44.73,44.73,0,0,1,176.14,451.86Z" transform="translate(-117.96 -309.99)"/><path class="cls-1" d="M158.27,409.92a2.36,2.36,0,0,1,2.34,1.32c.73,1.22,1.41,2.47,2.19,3.66a16.28,16.28,0,0,0,1.83,2.39c.73.76,1.12,1.4.18,2.28a1.4,1.4,0,0,0-.36,1c.06.6.33,1.35-.5,1.44a2.49,2.49,0,0,1-2-.53,8.28,8.28,0,0,1-1.12-2.81,9.84,9.84,0,0,1-.26-2.37c0-1.19-.59-1.65-1.75-1.77a2.8,2.8,0,0,1-2.68-2.67C156,410.29,156.5,409.8,158.27,409.92Z" transform="translate(-117.96 -309.99)"/><path class="cls-1" d="M227.86,354c.46-1.32,1.66-2,2.83-2.59,1.71-.92,1.87-1.24,1.29-3.11a2.3,2.3,0,0,1,1.23-2.86,1.93,1.93,0,0,1,1.39.32c1.69,1,3.29,2.18,5,3.09a16.71,16.71,0,0,0,8.08,1.81,1.78,1.78,0,0,0,.78-.21c1.15-.65,1.86-.36,1.7.9-.18,1.42.43,2.91-.38,4.27-.1.18,0,.47,0,.85a8.8,8.8,0,0,0-1.89.39,1.56,1.56,0,0,0-.86,1,2.64,2.64,0,0,0,.46,1.45,5.57,5.57,0,0,0,.86,1,20.41,20.41,0,0,0-2.05,1.12c-.11.07,0,.75.09.79a8.11,8.11,0,0,0,1.59.23c-.49.19-.92.51-1.28.45a16.18,16.18,0,0,1-3.82-.85c-1.89-.8-3.52-1.12-4.76,1.1.17-1.32-.6-1.75-1.57-1.94s-1.81.43-2.28,1.92a11.41,11.41,0,0,1-1.31-2.4c-.32-1.23-1.13-1.57-2.21-1.77a9.38,9.38,0,0,1-2.59-.86,1.31,1.31,0,0,0,1.63-1.41,7.59,7.59,0,0,0-.56-2.55C229.19,354,228.42,354.05,227.86,354Z" transform="translate(-117.96 -309.99)"/><path class="cls-1" d="M250.84,343.33a26.91,26.91,0,0,0,2.83-2.09A16.48,16.48,0,0,1,258,338.3a14.1,14.1,0,0,0,1.77-1.38c.72-.5,1.48-.93,2.23-1.38.13-.08.34-.12.39-.23.73-1.59,2.29-2,3.68-2.67.18-.08.42-.17.48-.33.52-1.24,1.65-1.58,2.76-2.05a25.05,25.05,0,0,0,3-1.77c.16-.1.23-.31.37-.44.49-.46,1-.92,1.48-1.35s1.15-1,1.75-1.42c.36-.27.75-.5,1.14-.74,1.47-.9,3-1.71,4.39-2.72,1.23-.88,2.27-2,3.45-3a18,18,0,0,1,2.38-1.6c.22-.13.58,0,.93,0a2.79,2.79,0,0,1-2.76,2.58,1.16,1.16,0,0,0-.65.23c-1.13.91-2.22,1.87-3.37,2.76-.69.55-1.48,1-2.16,1.52a21.25,21.25,0,0,0-1.61,1.54,7.4,7.4,0,0,1-.57.55c-.62.47-1.5.61-1.67,1.67-.05.31-1,.5-1.52.69-.29.1-.78,0-.89.13-.73,1.06-2,1.18-3,1.75-.43.24-.67.82-1,1.25-.14.18-.24.42-.43.54-1.59,1-3.24,2-4.79,3.08-1.38,1-2.65,2.06-4,3.11-.21.16-.39.46-.62.49a8,8,0,0,0-4.46,2.35,8.05,8.05,0,0,1-1.73,1.59A7.18,7.18,0,0,1,250.84,343.33Z" transform="translate(-117.96 -309.99)"/><path class="cls-1" d="M278.68,321.22c-1.33.8-2.67,1.56-4,2.39a12.06,12.06,0,0,0-2,1.53,3.48,3.48,0,0,1-1.8.88,29.23,29.23,0,0,0-3.94,1.75c-3.78,1.56-6.45,4.91-10.16,6.46-1.71.71-3.2,1.71-4.83,2.51-1.45.7-2.92,1.37-4.39,2.06l-.2-.3c1.31-1,2.55-2.05,3.94-2.89a34.51,34.51,0,0,1,6.36-3.34c2.19-.74,3.76-2.36,5.8-3.26.83-.37,1.39-1.33,2.2-1.81s1.67-.5,2.43-.9a22.45,22.45,0,0,0,2.35-1.58c.16-.11.36-.36.48-.32,1.53.43,2.07-1.08,3.12-1.53,1.49-.63,2.55-2.3,4.44-2Z" transform="translate(-117.96 -309.99)"/><path class="cls-1" d="M268.63,336.55c-.82.91-1.6,1.86-2.48,2.7-.65.63-1.47,1.06-2.13,1.68-1.47,1.36-2.87,2.79-4.32,4.16a4.94,4.94,0,0,1-1.07.63l-.26-.38,1.82-1.5c.12-.1.27-.16.38-.27,1.7-1.82,3.36-3.68,5.13-5.44a20.08,20.08,0,0,1,2.63-1.87Z" transform="translate(-117.96 -309.99)"/></svg>